<?xml version="1.0" encoding="utf-8"?>
<!-- Generator: Adobe Illustrator 26.0.1, SVG Export Plug-In . SVG Version: 6.00 Build 0)  -->
<svg version="1.1" id="Layer_1" xmlns="http://www.w3.org/2000/svg" xmlns:xlink="http://www.w3.org/1999/xlink" x="0px" y="0px"
	 viewBox="0 0 100 100" style="enable-background:new 0 0 100 100;" xml:space="preserve">
<style type="text/css">
	.st0{fill-rule:evenodd;clip-rule:evenodd;fill:#53AEBD;}
	.st1{fill-rule:evenodd;clip-rule:evenodd;fill:#DFA82D;}
	.st2{fill-rule:evenodd;clip-rule:evenodd;fill:#C04027;}
</style>
<g>
	<path class="st0" d="M90,50c0-4.8-3.9-8.6-8.6-8.6H17.7c-4.7,0.5-8.2,4.8-7.7,9.5c0.4,4.1,3.6,7.3,7.7,7.7h63.6
		C86.2,58.6,90,54.7,90,50L90,50z"/>
	<path class="st1" d="M90,20.3c0-4.8-3.9-8.6-8.6-8.6H17.7c-4.7,0.5-8.2,4.8-7.7,9.5c0.4,4.1,3.6,7.3,7.7,7.7h63.6
		C86.2,28.8,90,25,90,20.3L90,20.3z"/>
	<path class="st2" d="M90,79.8c0-4.8-3.9-8.6-8.6-8.6H17.7c-4.7,0.5-8.2,4.8-7.7,9.5c0.4,4.1,3.6,7.3,7.7,7.7h63.6
		C86.2,88.4,90,84.5,90,79.8L90,79.8z"/>
</g>
</svg>
